<?xml version="1.0" standalone="no"?>
<!DOCTYPE svg PUBLIC "-//W3C//DTD SVG 20010904//EN"
 "http://www.w3.org/TR/2001/REC-SVG-20010904/DTD/svg10.dtd">
<svg version="1.0" xmlns="http://www.w3.org/2000/svg"
 width="146.000000pt" height="146.000000pt" viewBox="0 0 146.000000 146.000000"
 preserveAspectRatio="xMidYMid meet">
<metadata>
Created by potrace 1.14, written by Peter Selinger 2001-2017
</metadata>
<g transform="translate(0.000000,146.000000) scale(0.100000,-0.100000)"
fill="#000000" stroke="none">
<path d="M462 1084 c-92 -24 -150 -64 -203 -140 -100 -146 -81 -329 48 -457
59 -60 134 -93 228 -100 l50 -4 3 -72 3 -72 77 3 77 3 2 110 c1 61 2 130 2
155 l1 45 163 1 c181 1 223 12 284 72 47 48 65 89 70 168 5 62 2 79 -19 125
-34 73 -96 133 -161 155 -44 15 -93 18 -312 20 -190 1 -275 -2 -313 -12z m601
-176 c38 -26 54 -91 33 -135 -9 -18 -27 -38 -42 -43 -14 -6 -88 -10 -165 -10
l-139 0 0 30 0 30 -80 0 -79 0 -3 -112 c-3 -128 -5 -130 -87 -108 -42 11 -111
70 -111 94 0 8 -6 16 -12 19 -9 2 -13 24 -13 63 0 92 32 140 120 184 12 5 128
8 285 7 234 -2 269 -4 293 -19z"/>
</g>
</svg>
